<svg width="38" height="39" viewBox="0 0 38 39" fill="none" xmlns="http://www.w3.org/2000/svg">
<path d="M0 19.29C0 23.1052 1.11433 26.8347 3.20208 30.0069C5.28982 33.1791 8.25722 35.6515 11.729 37.1116C15.2008 38.5716 19.0211 38.9536 22.7067 38.2093C26.3923 37.465 29.7778 35.6278 32.435 32.93C35.0922 30.2323 36.9018 26.7951 37.6349 23.0532C38.368 19.3114 37.9918 15.4328 36.5537 11.908C35.1156 8.38323 32.6804 5.37055 29.5558 3.25094C26.4313 1.13134 22.7578 0 19 0C13.9609 0 9.12816 2.03233 5.56497 5.6499C2.00178 9.26747 0 14.1739 0 19.29ZM31.4179 29.9683L8.48214 6.68259C11.6044 4.044 15.5853 2.68541 19.6435 2.87346C23.7017 3.06152 27.5441 4.78264 30.4167 7.69904C33.2892 10.6154 34.9845 14.5165 35.1697 18.6366C35.355 22.7567 34.0168 26.7984 31.4179 29.9683ZM8.46857 31.9111C5.18201 29.0776 3.13636 25.0364 2.78019 20.6739C2.42401 16.3113 3.78639 11.9834 6.56857 8.63915L29.4907 31.9111C26.5514 34.4326 22.8277 35.816 18.9796 35.816C15.1316 35.816 11.4078 34.4326 8.46857 31.9111Z" fill="black"/>
</svg>
